<svg width="50" height="50" viewBox="0 0 50 50" fill="none" xmlns="http://www.w3.org/2000/svg">
<path d="M48 25C48 37.7025 37.7025 48 25 48C12.2975 48 2 37.7025 2 25C2 12.2975 12.2975 2 25 2C37.7025 2 48 12.2975 48 25ZM7.07956 25C7.07956 34.8972 15.1028 42.9204 25 42.9204C34.8972 42.9204 42.9204 34.8972 42.9204 25C42.9204 15.1028 34.8972 7.07956 25 7.07956C15.1028 7.07956 7.07956 15.1028 7.07956 25Z" fill="#EEEEEE"/>
<path d="M25 2.72257C25 2.3235 25.3236 1.99881 25.7224 2.01135C26.1213 2.02388 26.4239 2.36825 26.3988 2.76653L26.1606 6.55304C26.1411 6.86336 25.8737 7.09817 25.5629 7.0884C25.2521 7.07863 25 6.8275 25 6.51657V2.72257Z" fill="#00964C"/>
<path d="M23.0893 21.552L21.0093 22.064V20.528L23.6173 19.6H25.1693V28.272L27.4733 28.24V30H20.6893V28.24L23.0893 28.272V21.552Z" fill="#074E9F"/>
<path d="M34.3591 22.4H35.2991L31.6391 29H30.6891L34.3591 22.4ZM30.2891 24.16C30.2891 24.3067 30.2991 24.4467 30.3191 24.58C30.3458 24.7133 30.3824 24.83 30.4291 24.93C30.4824 25.03 30.5458 25.11 30.6191 25.17C30.6991 25.23 30.7924 25.26 30.8991 25.26C31.0058 25.26 31.0958 25.23 31.1691 25.17C31.2491 25.11 31.3124 25.03 31.3591 24.93C31.4124 24.83 31.4491 24.7133 31.4691 24.58C31.4958 24.4467 31.5091 24.3067 31.5091 24.16C31.5091 24.0133 31.4958 23.8733 31.4691 23.74C31.4491 23.6067 31.4124 23.49 31.3591 23.39C31.3124 23.29 31.2491 23.21 31.1691 23.15C31.0958 23.09 31.0058 23.06 30.8991 23.06C30.7924 23.06 30.6991 23.09 30.6191 23.15C30.5458 23.21 30.4824 23.29 30.4291 23.39C30.3824 23.49 30.3458 23.6067 30.3191 23.74C30.2991 23.8733 30.2891 24.0133 30.2891 24.16ZM29.4391 24.16C29.4391 23.92 29.4691 23.6933 29.5291 23.48C29.5958 23.2667 29.6924 23.08 29.8191 22.92C29.9458 22.7533 30.0991 22.6233 30.2791 22.53C30.4591 22.4367 30.6658 22.39 30.8991 22.39C31.1258 22.39 31.3291 22.4367 31.5091 22.53C31.6958 22.6233 31.8491 22.7533 31.9691 22.92C32.0958 23.08 32.1924 23.2667 32.2591 23.48C32.3258 23.6933 32.3591 23.92 32.3591 24.16C32.3591 24.4 32.3258 24.6267 32.2591 24.84C32.1924 25.0533 32.0958 25.24 31.9691 25.4C31.8491 25.56 31.6958 25.6867 31.5091 25.78C31.3291 25.8733 31.1258 25.92 30.8991 25.92C30.6658 25.92 30.4591 25.8733 30.2791 25.78C30.0991 25.6867 29.9458 25.56 29.8191 25.4C29.6924 25.24 29.5958 25.0533 29.5291 24.84C29.4691 24.6267 29.4391 24.4 29.4391 24.16ZM34.4891 27.35C34.4891 27.4967 34.4991 27.6367 34.5191 27.77C34.5458 27.9033 34.5824 28.02 34.6291 28.12C34.6824 28.22 34.7458 28.3 34.8191 28.36C34.8991 28.42 34.9924 28.45 35.0991 28.45C35.2058 28.45 35.2958 28.42 35.3691 28.36C35.4491 28.3 35.5124 28.22 35.5591 28.12C35.6124 28.02 35.6491 27.9033 35.6691 27.77C35.6958 27.6367 35.7091 27.4967 35.7091 27.35C35.7091 27.2033 35.6958 27.0633 35.6691 26.93C35.6491 26.7967 35.6124 26.68 35.5591 26.58C35.5124 26.48 35.4491 26.4 35.3691 26.34C35.2958 26.28 35.2058 26.25 35.0991 26.25C34.9924 26.25 34.8991 26.28 34.8191 26.34C34.7458 26.4 34.6824 26.48 34.6291 26.58C34.5824 26.68 34.5458 26.7967 34.5191 26.93C34.4991 27.0633 34.4891 27.2033 34.4891 27.35ZM33.6391 27.35C33.6391 27.11 33.6691 26.8833 33.7291 26.67C33.7958 26.4567 33.8924 26.27 34.0191 26.11C34.1458 25.9433 34.2991 25.8133 34.4791 25.72C34.6591 25.6267 34.8658 25.58 35.0991 25.58C35.3258 25.58 35.5291 25.6267 35.7091 25.72C35.8958 25.8133 36.0491 25.9433 36.1691 26.11C36.2958 26.27 36.3924 26.4567 36.4591 26.67C36.5258 26.8833 36.5591 27.11 36.5591 27.35C36.5591 27.59 36.5258 27.8167 36.4591 28.03C36.3924 28.2433 36.2958 28.43 36.1691 28.59C36.0491 28.75 35.8958 28.8767 35.7091 28.97C35.5291 29.0633 35.3258 29.11 35.0991 29.11C34.8658 29.11 34.6591 29.0633 34.4791 28.97C34.2991 28.8767 34.1458 28.75 34.0191 28.59C33.8924 28.43 33.7958 28.2433 33.7291 28.03C33.6691 27.8167 33.6391 27.59 33.6391 27.35Z" fill="black"/>
</svg>
