<svg width="32" height="32" viewBox="0 0 32 32" fill="none" xmlns="http://www.w3.org/2000/svg">
<g clip-path="url(#clip0_213_7736)">
<path d="M23.3333 0C18.5547 0 14.6667 3.88794 14.6667 8.66675C14.6667 13.4453 18.5547 17.3333 23.3333 17.3333C28.1121 17.3333 32 13.4453 32 8.66675C32 3.88794 28.1121 0 23.3333 0ZM24.6667 11.6667C24.6667 12.2188 24.2188 12.6667 23.6667 12.6667C23.1147 12.6667 22.6667 12.2188 22.6667 11.6667V7.33325H22C21.448 7.33325 21 6.88525 21 6.33325C21 5.78125 21.448 5.33325 22 5.33325H23.6667C24.2188 5.33325 24.6667 5.78125 24.6667 6.33325V11.6667Z" fill="#F44336"/>
<path d="M18.6667 26.6665C18.6667 29.6121 16.2788 31.9998 13.3333 31.9998C10.3877 31.9998 8 29.6121 8 26.6665C8 23.7209 10.3877 21.333 13.3333 21.333C16.2788 21.333 18.6667 23.7209 18.6667 26.6665Z" fill="#FFA000"/>
<path d="M23.76 19.9785C23.6174 19.9836 23.4773 19.9998 23.3333 19.9998C17.084 19.9998 12 14.9158 12 8.6665C12 6.47046 12.6387 4.42505 13.7241 2.68652C13.5933 2.68115 13.4653 2.6665 13.3333 2.6665C8.18677 2.6665 4 6.85303 4 11.9998V15.717C4 18.3557 2.84399 20.8464 0.815918 22.561C0.297363 23.0037 0 23.6504 0 24.333C0 25.6199 1.04663 26.6665 2.33325 26.6665H24.3333C25.6201 26.6665 26.6667 25.6199 26.6667 24.333C26.6667 23.6504 26.3694 23.0037 25.8374 22.5491C24.9773 21.821 24.2839 20.9438 23.76 19.9785Z" fill="#FFC107"/>
</g>
<defs>
<clipPath id="clip0_213_7736">
<rect width="32" height="32" fill="white"/>
</clipPath>
</defs>
</svg>
