<svg width="106" height="95" viewBox="0 0 106 95" fill="none" xmlns="http://www.w3.org/2000/svg">
<g clip-path="url(#clip0_213_7444)">
<path d="M40.5935 71.0488L42.2805 68.9682L43.78 67.1003L39.8203 63.8612L36.6454 67.8097L40.5935 71.0488Z" fill="#003766"/>
<path d="M36.6455 67.8096L39.8203 63.8611L35.8723 60.6101L34.361 62.4779L32.6857 64.5586L36.6455 67.8096Z" fill="#07334E"/>
<path d="M24.1565 83.2945L36.3872 68.1133L35.8054 67.636L23.5747 82.8173L24.1565 83.2945Z" fill="#DCDCDC"/>
<path d="M24.7465 83.7799L36.9772 68.5986L36.3954 68.1214L24.1647 83.3026L24.7465 83.7799Z" fill="white"/>
<path d="M73.7829 41.3291L80.1794 37.3215L68.7453 27.9468L64.2584 33.5149L73.7829 41.3291Z" fill="#074E9F"/>
<path d="M54.7339 25.7009L64.2584 33.5151L68.7454 27.9471L57.3229 18.5724L54.7339 25.7009Z" fill="#00964C"/>
<path d="M70.899 52.9797L72.1257 51.457L66.2534 46.6396L65.0266 48.1623L70.899 52.9797Z" fill="#00447D"/>
<path d="M72.1307 51.4568L73.3574 49.9341L67.4851 45.1166L66.2583 46.6394L72.1307 51.4568Z" fill="#003766"/>
<path d="M59.5202 67.1096L60.7469 65.5869L54.8746 60.7695L53.6478 62.2922L59.5202 67.1096Z" fill="#00447D"/>
<path d="M60.7636 65.5867L61.9904 64.064L56.118 59.2465L54.8912 60.7692L60.7636 65.5867Z" fill="#003766"/>
<path d="M96.4344 83.1325L105.997 71.2627L74.3629 45.3112L64.8 57.181L96.4344 83.1325Z" fill="#DCDCDC"/>
<path d="M86.8781 94.9953L96.4409 83.1255L64.8066 57.174L55.2438 69.0438L86.8781 94.9953Z" fill="white"/>
<path d="M86.5477 91.7598L94.6694 81.6787L66.5712 58.6281L58.4495 68.7092L86.5477 91.7598Z" fill="#00447D"/>
<path d="M94.6696 81.6783L102.791 71.5972L74.6932 48.5466L66.5714 58.6277L94.6696 81.6783Z" fill="#003766"/>
<path d="M88.0836 76.2801L96.9498 65.271L96.1134 64.5851L87.2471 75.5942L88.0836 76.2801Z" fill="#DCDCDC"/>
<path d="M79.6245 86.7902L88.0862 76.2871L87.2499 75.601L78.7882 86.1041L79.6245 86.7902Z" fill="white"/>
<path d="M72.5815 81.005L81.0432 70.502L80.2069 69.8159L71.7452 80.3189L72.5815 81.005Z" fill="white"/>
<path d="M81.0408 70.5086L89.9071 59.4995L89.0707 58.8136L80.2044 69.8227L81.0408 70.5086Z" fill="#DCDCDC"/>
<path d="M73.993 64.719L82.8612 53.7114L82.0249 53.0254L73.1567 64.0329L73.993 64.719Z" fill="#DCDCDC"/>
<path d="M65.5373 75.2189L73.9972 64.7144L73.1608 64.0284L64.7009 74.533L65.5373 75.2189Z" fill="white"/>
<path d="M92.5546 86.1183L93.2345 85.2744L64.1273 61.3961L63.4474 62.24L92.5546 86.1183Z" fill="white"/>
<path d="M98.285 79.0187L98.9648 78.1748L69.8576 54.2964L69.1777 55.1404L98.285 79.0187Z" fill="#DCDCDC"/>
<path d="M49.8892 35.738L51.116 34.2153L45.2436 29.3979L44.0169 30.9206L49.8892 35.738Z" fill="#00447D"/>
<path d="M51.1209 34.2151L52.3477 32.6924L46.4753 27.875L45.2485 29.3977L51.1209 34.2151Z" fill="#003766"/>
<path d="M38.5148 49.8772L39.7416 48.3545L33.8692 43.5371L32.6425 45.0598L38.5148 49.8772Z" fill="#00447D"/>
<path d="M39.7465 48.3543L40.9733 46.8315L35.1009 42.0141L33.8742 43.5368L39.7465 48.3543Z" fill="#003766"/>
<path d="M41.1841 37.8127L50.7469 25.9429L19.1126 -0.00861779L9.54979 11.8612L41.1841 37.8127Z" fill="#DCDCDC"/>
<path d="M31.628 49.676L41.1908 37.8062L9.55647 11.8547L-0.00637487 23.7245L31.628 49.676Z" fill="white"/>
<path d="M31.2975 46.4405L39.4193 36.3594L11.3211 13.3088L3.19936 23.3899L31.2975 46.4405Z" fill="#00447D"/>
<path d="M39.4195 36.3589L47.5413 26.2778L19.4431 3.22724L11.3213 13.3083L39.4195 36.3589Z" fill="#003766"/>
<path d="M18.7429 19.3992L27.6111 8.3916L26.7748 7.70553L17.9066 18.7131L18.7429 19.3992Z" fill="#DCDCDC"/>
<path d="M10.284 29.9029L18.7457 19.3999L17.9094 18.7138L9.44771 29.2169L10.284 29.9029Z" fill="white"/>
<path d="M17.3388 35.6876L25.8005 25.1846L24.9642 24.4985L16.5025 35.0015L17.3388 35.6876Z" fill="white"/>
<path d="M25.7903 25.2053L34.6584 14.1978L33.8221 13.5117L24.954 24.5192L25.7903 25.2053Z" fill="#DCDCDC"/>
<path d="M32.845 30.9665L41.7131 19.959L40.8768 19.2729L32.0087 30.2805L32.845 30.9665Z" fill="#DCDCDC"/>
<path d="M24.3861 41.4703L32.8478 30.9673L32.0115 30.2812L23.5498 40.7843L24.3861 41.4703Z" fill="white"/>
<path d="M36.558 40.194L37.2379 39.3501L8.1307 15.4717L7.4508 16.3157L36.558 40.194Z" fill="white"/>
<path d="M42.2882 33.0944L42.9681 32.2505L13.8609 8.37213L13.181 9.21605L42.2882 33.0944Z" fill="#DCDCDC"/>
<path d="M46.3457 71.4629L51.2661 69.2995L41.7416 61.4853L38.7307 65.2092L46.3457 71.4629Z" fill="#074E9F"/>
<path d="M31.1158 58.9671L38.7307 65.209L41.7416 61.4851L32.217 53.6709L31.1158 58.9671Z" fill="#00964C"/>
<path d="M41.7416 61.4849L64.2584 33.5145L54.7339 25.7003L44.1081 38.8934L32.2171 53.6707L41.7416 61.4849Z" fill="#DCDCDC"/>
<path d="M51.2662 69.2993L63.1572 54.5221L73.783 41.3289L64.2584 33.5147L41.7416 61.4851L51.2662 69.2993Z" fill="white"/>
<path d="M70.6432 45.23L71.5804 44.0714L72.4122 43.0429L62.8877 35.2287L61.1187 37.4158L70.6432 45.23Z" fill="#074E9F"/>
<path d="M61.1187 37.4155L62.8877 35.2285L53.3632 27.4143L52.5314 28.4428L51.5942 29.6013L61.1187 37.4155Z" fill="#00964C"/>
<path d="M43.1826 85.6489C43.9909 84.4667 44.4947 83.1191 44.7173 81.6886L33.1191 72.1721L30.5886 75.3167L43.1826 85.6489Z" fill="#074E9F"/>
<path d="M17.9947 64.9846L30.5886 75.3169L33.1191 72.1723L21.521 62.6557C20.1737 63.1759 18.9788 63.9443 17.9947 64.9846Z" fill="#00964C"/>
<path d="M44.7173 81.6885C45.4905 76.747 42.9248 70.7297 37.7232 66.462L33.1191 72.1719L44.7173 81.6885Z" fill="white"/>
<path d="M33.1192 72.1718L37.7233 66.4618C32.5217 62.1942 26.1603 60.882 21.521 62.667L33.1192 72.1836V72.1718Z" fill="#DCDCDC"/>
<path d="M22.7042 85.105L25.6096 81.4993C24.6255 80.6954 23.1728 80.8373 22.3762 81.8422C21.5796 82.8352 21.7201 84.3011 22.7159 85.105H22.7042Z" fill="#00964C"/>
<path d="M25.9494 84.7622C26.746 83.7691 26.6055 82.3032 25.6097 81.4994L22.7043 85.105C23.6884 85.9089 25.1411 85.767 25.9377 84.7622H25.9494Z" fill="#074E9F"/>
</g>
<defs>
<clipPath id="clip0_213_7444">
<rect width="106" height="95" fill="white" transform="matrix(-1 0 0 -1 106 95)"/>
</clipPath>
</defs>
</svg>
