<svg width="45" height="30" viewBox="0 0 45 30" fill="none" xmlns="http://www.w3.org/2000/svg">
<path d="M20.0322 12.5957C20.0322 16.7742 16.6444 20.1548 12.4731 20.1548C8.30187 20.1548 4.91406 16.767 4.91406 12.5957C4.91406 8.42443 8.30187 5.03662 12.4731 5.03662C16.6444 5.03662 20.0322 8.42443 20.0322 12.5957Z" fill="#FFC800"/>
<path d="M18.8645 17.971C19.2417 17.6155 20.0252 16.346 20.3154 15.4609C21.0989 16.1719 22.0347 17.3108 22.6803 18.5078C21.331 18.5368 19.8656 18.2974 18.8645 17.971Z" fill="#FFC800"/>
<path d="M15.3169 20.4519C15.9118 20.2198 15.8248 20.2706 16.6372 19.8426C17.3264 19.3855 16.8331 19.7773 17.8342 19.0083C18.4363 20.9597 18.3565 22.8314 18.3565 22.8314C18.3565 22.8314 16.688 21.9463 15.3097 20.4592L15.3169 20.4519Z" fill="#FFC800"/>
<path d="M11.0079 20.829C12.8433 21.0467 12.9449 20.9088 13.4599 20.8943C13.7283 20.858 13.9097 20.8218 13.9097 20.8218C13.634 22.084 13.0247 23.4769 12.4516 24.3909C11.7769 23.2665 11.2763 22.0115 11.0079 20.829Z" fill="#FFC800"/>
<path d="M7.09757 18.9937C7.46029 19.3709 8.72255 20.1544 9.60759 20.4445C8.86764 21.2643 7.72144 22.1783 6.568 22.8095C6.53898 21.4456 6.78563 19.973 7.10482 18.9937H7.09757Z" fill="#FFC800"/>
<path d="M4.6165 15.4462C4.84864 16.0411 4.79787 15.954 5.22588 16.7665C5.68291 17.4629 5.29117 16.9624 6.06013 17.9635C4.1087 18.5656 2.23706 18.4858 2.23706 18.4858C2.23706 18.4858 3.1221 16.81 4.60925 15.439L4.6165 15.4462Z" fill="#FFC800"/>
<path d="M4.23965 11.1372C4.10907 12.1963 4.13808 11.7974 4.12357 12.5881C4.10181 12.9508 4.16709 13.3135 4.17435 13.5892C4.21062 13.8576 4.2469 14.039 4.2469 14.039C2.99189 13.7633 1.6063 13.1612 0.677734 12.5881C1.79491 11.9134 3.06443 11.4129 4.23965 11.1445V11.1372Z" fill="#FFC800"/>
<path d="M6.07498 7.22015C6.07498 7.22015 5.9444 7.35073 5.79206 7.57561C5.34954 8.18498 4.89976 8.89591 4.6241 9.72291C3.80435 8.98296 2.89029 7.84402 2.25916 6.68332C3.60847 6.64705 5.05936 6.88644 6.07498 7.22015Z" fill="#FFC800"/>
<path d="M9.62244 4.74614C8.27313 5.26846 7.72904 5.71098 7.10517 6.18977C6.50305 4.23833 6.58285 2.3667 6.58285 2.3667C6.58285 2.3667 8.25861 3.25174 9.62969 4.73889L9.62244 4.74614Z" fill="#FFC800"/>
<path d="M13.9315 4.36904C12.0889 4.14415 11.9946 4.28924 11.4796 4.30375C11.2111 4.34002 11.0298 4.37629 11.0298 4.37629C11.2982 3.15755 11.8785 1.78647 12.4879 0.807129C13.0973 1.81549 13.6414 3.08501 13.9315 4.36904Z" fill="#FFC800"/>
<path d="M17.8416 6.20449C17.4861 5.83451 16.2238 5.04378 15.3315 4.75361C16.0425 3.97013 17.1814 3.03431 18.3711 2.38867C18.4002 3.7525 18.1535 5.22514 17.8343 6.20449H17.8416Z" fill="#FFC800"/>
<path d="M20.3225 9.75159C20.0904 9.15673 20.1412 9.24379 19.7132 8.43129C19.2561 7.74212 19.6479 8.23542 18.8789 7.23432C20.8303 6.6322 22.702 6.712 22.702 6.712C22.702 6.712 21.8169 8.38777 20.3298 9.75885L20.3225 9.75159Z" fill="#FFC800"/>
<path d="M20.6999 14.0609C20.8305 13.0018 20.8015 13.4008 20.816 12.6101C20.8378 12.2473 20.7725 11.8846 20.7652 11.609C20.729 11.3405 20.6927 11.1592 20.6854 11.1592C21.9477 11.4348 23.3405 12.0442 24.2546 12.6173C23.2462 13.2267 21.9694 13.7708 20.6927 14.0609H20.6999Z" fill="#FFC800"/>
<path d="M20.0322 12.5957C20.0322 16.7742 16.6517 20.1548 12.4731 20.1548H12.4659C8.29461 20.1548 4.91406 16.767 4.91406 12.5957C4.91406 8.42443 8.29461 5.03662 12.4659 5.03662H12.4731C16.6517 5.03662 20.0322 8.42443 20.0322 12.5957Z" fill="#FFC800"/>
<path d="M22.6804 18.5079C21.3311 18.5441 19.8657 18.2975 18.8718 17.971C19.2418 17.6156 20.0325 16.346 20.3154 15.4683C21.0989 16.1792 22.0347 17.3181 22.6804 18.5079Z" fill="#FFC800"/>
<path d="M18.364 22.8241C18.364 22.8241 16.6882 21.9391 15.3171 20.4519C15.912 20.2198 15.825 20.2706 16.6374 19.8426C17.3339 19.3855 16.8333 19.7773 17.8417 19.0083C18.4365 20.9597 18.364 22.8314 18.364 22.8314V22.8241Z" fill="#FFC800"/>
<path d="M13.9098 20.8218C13.6414 22.0768 13.032 23.4624 12.4589 24.3837C12.4589 24.3837 12.4589 24.3837 12.4589 24.3909C11.7915 23.2738 11.2837 22.0115 11.0153 20.829C11.7044 20.9088 12.1469 20.9451 12.4661 20.9524C12.9885 20.9669 13.1481 20.9088 13.4672 20.9016C13.7429 20.8653 13.917 20.829 13.917 20.829L13.9098 20.8218Z" fill="#FFC800"/>
<path d="M7.09757 18.9937C7.46029 19.3709 8.72255 20.1544 9.60759 20.4445C8.86764 21.2643 7.72144 22.1783 6.568 22.8095C6.53898 21.4456 6.78563 19.973 7.10482 18.9937H7.09757Z" fill="#FFC800"/>
<path d="M4.6165 15.4462C4.84864 16.0411 4.79787 15.954 5.22588 16.7665C5.68291 17.4629 5.29117 16.9624 6.06013 17.9635C4.1087 18.5656 2.23706 18.4858 2.23706 18.4858C2.23706 18.4858 3.1221 16.81 4.60925 15.439L4.6165 15.4462Z" fill="#FFC800"/>
<path d="M4.23965 11.1372C4.10907 12.1963 4.13808 11.7974 4.12357 12.5881C4.10181 12.9508 4.16709 13.3135 4.17435 13.5892C4.21062 13.8576 4.2469 14.039 4.2469 14.039C2.99189 13.7633 1.6063 13.1612 0.677734 12.5881C1.79491 11.9134 3.06443 11.4129 4.23965 11.1445V11.1372Z" fill="#FFC800"/>
<path d="M6.07498 7.22015C6.07498 7.22015 5.9444 7.35073 5.79206 7.57561C5.34954 8.18498 4.89976 8.89591 4.6241 9.72291C3.80435 8.98297 2.89029 7.84402 2.25916 6.68332C3.60847 6.64705 5.05936 6.88644 6.07498 7.22015Z" fill="#FFC800"/>
<path d="M9.62244 4.74614C8.27313 5.26846 7.72904 5.71098 7.10517 6.18977C6.50305 4.23833 6.58285 2.3667 6.58285 2.3667C6.58285 2.3667 8.25861 3.25174 9.62969 4.73889L9.62244 4.74614Z" fill="#FFC800"/>
<path d="M13.9315 4.36171C13.2278 4.27466 12.7708 4.24564 12.4588 4.23839C11.951 4.23114 11.7914 4.28917 11.4722 4.29643C11.2038 4.3327 11.0225 4.37622 11.0225 4.37622C11.2836 3.17199 11.8567 1.81542 12.4516 0.843331C12.4588 0.828822 12.4661 0.821568 12.4806 0.799805C13.09 1.81542 13.634 3.08494 13.9242 4.36171H13.9315Z" fill="#FFC800"/>
<path d="M17.8416 6.20449C17.4862 5.83451 16.2239 5.04378 15.3389 4.75361C16.0498 3.97013 17.1887 3.04157 18.3785 2.38867C18.4147 3.7525 18.1681 5.22514 17.8416 6.20449Z" fill="#FFC800"/>
<path d="M22.6947 6.70468C22.6947 6.70468 21.8097 8.38044 20.3225 9.75152C20.0904 9.14941 20.1412 9.24372 19.7132 8.42397C19.2489 7.7348 19.6479 8.23535 18.8789 7.22699C20.8303 6.62488 22.702 6.70468 22.702 6.70468H22.6947Z" fill="#FFC800"/>
<path d="M20.8232 12.6101C20.8449 12.2401 20.7796 11.8846 20.7724 11.609C20.7288 11.3405 20.6998 11.1592 20.6998 11.1592C21.9621 11.4348 23.3549 12.0442 24.269 12.6173C23.2606 13.2267 21.9911 13.7708 20.7071 14.0609C20.8377 13.0018 20.8086 13.4008 20.8304 12.6101H20.8232Z" fill="#FFC800"/>
<path d="M13.9314 4.36171C13.2277 4.27466 12.7707 4.24564 12.4587 4.23839V0.843331C12.4587 0.843331 12.4732 0.821568 12.4878 0.799805C13.0971 1.81542 13.6412 3.08494 13.9314 4.36171Z" fill="#FFDC00"/>
<path d="M13.4598 20.9016C13.7355 20.8654 13.9096 20.8291 13.9096 20.8291C13.6412 22.0841 13.0318 23.4697 12.4587 24.391V20.9597C12.9811 20.9742 13.1406 20.9162 13.4598 20.9089V20.9016Z" fill="#FFDC00"/>
<path d="M12.466 20.1548H12.4587V5.03662H12.466C16.6445 5.03662 20.0251 8.42443 20.0251 12.5957C20.0251 16.767 16.6445 20.1548 12.466 20.1548Z" fill="#FFDC00"/>
<path d="M17.8417 19.001C18.4365 20.9524 18.364 22.824 18.364 22.824C18.364 22.824 16.6882 21.939 15.3171 20.4519C15.912 20.2197 15.825 20.2705 16.6374 19.8425C17.3339 19.3855 16.8333 19.7772 17.8417 19.0082V19.001Z" fill="#FFDC00"/>
<path d="M17.8416 6.20449C17.4862 5.83451 16.2239 5.04378 15.3389 4.75361C16.0498 3.97013 17.1887 3.04157 18.3785 2.38867C18.4147 3.7525 18.1681 5.22514 17.8416 6.20449Z" fill="#FFDC00"/>
<path d="M22.6804 18.5079C21.3311 18.5441 19.8657 18.2975 18.8718 17.971C19.2418 17.6156 20.0325 16.346 20.3154 15.4683C21.0989 16.1792 22.0347 17.3181 22.6804 18.5079Z" fill="#FFDC00"/>
<path d="M19.7132 8.42397C19.2489 7.7348 19.6479 8.23535 18.8789 7.22699C20.8303 6.62488 22.702 6.70468 22.702 6.70468C22.702 6.70468 21.8169 8.38044 20.3298 9.75152C20.0976 9.14941 20.1484 9.24372 19.7204 8.42397H19.7132Z" fill="#FFDC00"/>
<path d="M20.8232 12.6101C20.8449 12.2401 20.7796 11.8846 20.7724 11.609C20.7288 11.3405 20.6998 11.1592 20.6998 11.1592C21.9621 11.4348 23.3549 12.0442 24.269 12.6173C23.2606 13.2267 21.9911 13.7708 20.7071 14.0609C20.8377 13.0018 20.8086 13.4008 20.8304 12.6101H20.8232Z" fill="#FFDC00"/>
<path d="M19.1981 12.5954H18.3421C18.3421 9.35997 15.7087 6.72662 12.4733 6.72662V5.87061C16.1875 5.87061 19.2053 8.88844 19.2053 12.6027L19.1981 12.5954Z" fill="#F5F5F5"/>
<path d="M44.226 23.2229C44.226 25.0438 43.4933 26.6978 42.2963 27.8875C41.0993 29.0772 39.4526 29.8172 37.6317 29.8172H10.0432C6.88032 29.8172 4.31226 27.2491 4.31226 24.0862C4.31226 20.9233 6.88032 18.3625 10.0432 18.3625C11.0589 18.3625 12.0092 18.6236 12.8362 19.0952C12.7056 18.7252 12.6185 18.319 12.6185 17.8982C12.6185 15.9685 14.1855 14.4088 16.1152 14.4088C17.2541 14.4088 18.2697 14.9602 18.9081 15.8089C19.2128 11.4345 22.6949 7.93792 27.0693 7.64774C27.2652 7.63323 27.4683 7.62598 27.6714 7.62598C32.5319 7.62598 36.471 11.5651 36.471 16.4183C36.471 16.5271 36.4565 16.6359 36.4565 16.7448C36.841 16.6722 37.24 16.6359 37.639 16.6359C41.2807 16.6359 44.2332 19.5885 44.2332 23.2302L44.226 23.2229Z" fill="#EAEAEA"/>
<path d="M44.2259 23.2234C44.2259 25.0442 43.4932 26.6982 42.2962 27.8879C41.0992 29.0777 39.4525 29.8176 37.6316 29.8176H27.0692V7.6409C27.2651 7.6264 27.4682 7.61914 27.6713 7.61914C32.5318 7.61914 36.4709 11.5583 36.4709 16.4115C36.4709 16.5203 36.4564 16.6291 36.4564 16.7379C36.8409 16.6654 37.2399 16.6291 37.6389 16.6291C41.2806 16.6291 44.2331 19.5816 44.2331 23.2234H44.2259Z" fill="#F5F5F5"/>
</svg>
