<svg width="45" height="34" viewBox="0 0 45 34" fill="none" xmlns="http://www.w3.org/2000/svg">
<path d="M44.2333 17.6358C44.2333 19.6255 43.4299 21.42 42.1235 22.7265C40.817 24.0254 39.0225 24.8363 37.0328 24.8363H6.93213C3.47832 24.8363 0.677734 22.0357 0.677734 18.5819C0.677734 15.1281 3.47832 12.335 6.93213 12.335C8.04335 12.335 9.0795 12.6203 9.98049 13.1309C9.83783 12.7179 9.74774 12.2824 9.74774 11.8244C9.74774 9.71461 11.4521 8.01773 13.562 8.01773C14.8008 8.01773 15.912 8.61839 16.6028 9.54942C16.9332 4.78166 20.7324 0.967451 25.5076 0.644595C25.7254 0.629579 25.9431 0.62207 26.1609 0.62207C31.4542 0.62207 35.7565 4.92432 35.7565 10.2177C35.7565 10.3378 35.7414 10.4504 35.7339 10.5705C36.1544 10.4955 36.5824 10.4504 37.0254 10.4504C40.9972 10.4504 44.2183 13.6715 44.2183 17.6358H44.2333Z" fill="#EAEAEA"/>
<path d="M44.2332 17.6358C44.2332 19.6255 43.4298 21.42 42.1234 22.7265C40.8169 24.0254 39.0225 24.8363 37.0328 24.8363H25.5076V0.644595C25.7253 0.629579 25.943 0.62207 26.1608 0.62207C31.4541 0.62207 35.7564 4.92432 35.7564 10.2177C35.7564 10.3378 35.7414 10.4504 35.7339 10.5705C36.1543 10.4955 36.5823 10.4504 37.0253 10.4504C40.9972 10.4504 44.2182 13.6715 44.2182 17.6358H44.2332Z" fill="#F5F5F5"/>
<path d="M34.57 29.4615C34.57 31.9617 32.5428 33.9815 30.0425 33.9815C27.5423 33.9815 25.515 31.9617 25.515 29.4615C25.515 26.9612 30.0425 20.5566 30.0425 20.5566C30.0425 20.5566 34.57 26.9537 34.57 29.4615Z" fill="#96DCF0"/>
<path d="M34.5701 29.4615C34.5701 31.9617 32.5429 33.9815 30.0426 33.9815V20.5566C30.0426 20.5566 34.5701 26.9537 34.5701 29.4615Z" fill="#A0E6FA"/>
<path d="M30.0426 32.735V32.1119C31.5067 32.1119 32.693 30.9255 32.693 29.4614H33.3162C33.3162 31.2634 31.8446 32.735 30.0426 32.735Z" fill="#F5F5F5"/>
<path d="M22.7522 24.979C22.7522 26.2103 21.7535 27.2164 20.5147 27.2164C19.2758 27.2164 18.2772 26.2178 18.2772 24.979C18.2772 23.7401 20.5147 20.5791 20.5147 20.5791C20.5147 20.5791 22.7522 23.7401 22.7522 24.979Z" fill="#96DCF0"/>
<path d="M22.7521 24.9788C22.7521 26.2101 21.7535 27.2162 20.5146 27.2162V20.5864C20.5146 20.5864 22.7521 23.7474 22.7521 24.9863V24.9788Z" fill="#A0E6FA"/>
</svg>
