<svg width="30" height="31" viewBox="0 0 30 31" fill="none" xmlns="http://www.w3.org/2000/svg">
<path d="M24.4211 15.5065C24.4211 20.707 20.2006 24.9276 15 24.9276C9.79951 24.9276 5.57898 20.707 5.57898 15.5065C5.57898 10.306 9.79951 6.08545 15 6.08545C20.2006 6.08545 24.4211 10.306 24.4211 15.5065Z" fill="#FFC800"/>
<path d="M22.9641 22.1967C23.428 21.7524 24.4145 20.1713 24.7738 19.0737C25.7538 19.9557 26.9168 21.38 27.7204 22.8631C26.0413 22.9023 24.212 22.6017 22.9641 22.1967Z" fill="#FFC800"/>
<path d="M18.5477 25.2866C19.2925 24.9991 19.1814 25.0579 20.1941 24.5222C21.0565 23.9473 20.4358 24.4438 21.6837 23.4834C22.4285 25.9138 22.337 28.2462 22.337 28.2462C22.337 28.2462 20.2529 27.1486 18.5411 25.2866H18.5477Z" fill="#FFC800"/>
<path d="M13.1772 25.757C15.4704 26.0314 15.588 25.855 16.2348 25.842C16.5746 25.7962 16.7967 25.7505 16.7967 25.7505C16.457 27.3185 15.6926 29.0564 14.9804 30.1997C14.1376 28.8016 13.517 27.2336 13.1772 25.757Z" fill="#FFC800"/>
<path d="M8.30344 23.4702C8.74771 23.9341 10.3288 24.9141 11.4264 25.2799C10.4986 26.3057 9.08091 27.4425 7.63704 28.2265C7.59784 26.5213 7.90491 24.6919 8.30344 23.4702Z" fill="#FFC800"/>
<path d="M5.21308 19.0475C5.50055 19.7923 5.44175 19.6813 5.97095 20.6939C6.54588 21.5563 6.05588 20.9357 7.00975 22.1835C4.57935 22.9283 2.24695 22.8369 2.24695 22.8369C2.24695 22.8369 3.34455 20.7527 5.20655 19.041L5.21308 19.0475Z" fill="#FFC800"/>
<path d="M4.74272 13.6833C4.58592 15.003 4.61205 14.5 4.59245 15.493C4.56632 15.9504 4.65125 16.4012 4.65778 16.7409C4.70352 17.0806 4.74925 17.2962 4.74925 17.2962C3.18778 16.9565 1.46298 16.2052 0.300049 15.48C1.69165 14.6437 3.27272 14.0165 4.74272 13.6768V13.6833Z" fill="#FFC800"/>
<path d="M7.03593 8.8032C7.03593 8.8032 6.8726 8.96 6.68313 9.24747C6.13433 10.0053 5.56593 10.8939 5.2262 11.9261C4.20046 10.9984 3.06366 9.58067 2.27966 8.1368C3.95873 8.0976 5.76846 8.3916 7.03593 8.8032Z" fill="#FFC800"/>
<path d="M11.4524 5.71937C9.77337 6.3727 9.0939 6.9215 8.31644 7.52257C7.57164 5.09217 7.6631 2.75977 7.6631 2.75977C7.6631 2.75977 9.75377 3.8639 11.459 5.71937H11.4524Z" fill="#FFC800"/>
<path d="M16.8228 5.24247C14.5296 4.96807 14.412 5.14447 13.7652 5.15754C13.4255 5.20327 13.2034 5.24901 13.2034 5.24901C13.5366 3.73327 14.2618 2.015 15.0196 0.799805C15.7775 2.06074 16.457 3.6418 16.8228 5.24247Z" fill="#FFC800"/>
<path d="M21.6967 7.53556C21.2524 7.0717 19.6779 6.0917 18.5737 5.72583C19.4557 4.74583 20.88 3.5829 22.3631 2.7793C22.4023 4.4845 22.0952 6.31383 21.6967 7.53556Z" fill="#FFC800"/>
<path d="M24.787 11.9589C24.4996 11.2141 24.5584 11.3252 24.0292 10.3125C23.4542 9.45011 23.9442 10.0708 22.9904 8.82291C25.4208 8.07811 27.7532 8.16957 27.7532 8.16957C27.7532 8.16957 26.649 10.2602 24.7936 11.9589H24.787Z" fill="#FFC800"/>
<path d="M25.2574 17.3226C25.4142 16.0029 25.3881 16.4994 25.4077 15.5129C25.4338 15.0555 25.3489 14.6047 25.3423 14.265C25.2966 13.9318 25.2509 13.7031 25.2509 13.7031C26.8254 14.0494 28.5567 14.8073 29.7001 15.5194C28.4391 16.2773 26.8581 16.9567 25.2574 17.3226Z" fill="#FFC800"/>
<path d="M24.4211 15.4997C24.4211 20.7067 20.2071 24.9207 15 24.9207H14.987C9.79298 24.9207 5.57898 20.7002 5.57898 15.4997C5.57898 10.2991 9.79298 6.08515 14.987 6.07861H15C20.2071 6.07861 24.4211 10.2991 24.4211 15.4997Z" fill="#FFC800"/>
<path d="M27.7204 22.8631C26.0414 22.9088 24.212 22.6083 22.9707 22.1967C23.4346 21.7524 24.4146 20.1713 24.7739 19.0737C25.7539 19.9557 26.9168 21.38 27.7204 22.8631Z" fill="#FFC800"/>
<path d="M22.3436 28.2462C22.3436 28.2462 20.2595 27.1486 18.5477 25.2866C19.286 24.9991 19.1815 25.0579 20.1941 24.5287C21.0631 23.9603 20.4424 24.4503 21.6903 23.4834C22.4285 25.9138 22.3436 28.2462 22.3436 28.2462Z" fill="#FFC800"/>
<path d="M16.7967 25.7505C16.457 27.312 15.7056 29.0433 14.987 30.1866C14.987 30.1866 14.987 30.1866 14.987 30.1997C14.1507 28.8081 13.5235 27.2336 13.1903 25.757C14.0527 25.855 14.6015 25.9008 14.9935 25.9073C15.6403 25.9269 15.8428 25.8485 16.2414 25.842C16.5811 25.7962 16.8032 25.7505 16.8032 25.7505H16.7967Z" fill="#FFC800"/>
<path d="M8.30344 23.4702C8.74771 23.9341 10.3288 24.9141 11.4264 25.2799C10.4986 26.3057 9.08091 27.4425 7.63704 28.2265C7.59784 26.5213 7.90491 24.6919 8.30344 23.4702Z" fill="#FFC800"/>
<path d="M5.21308 19.0475C5.50055 19.7923 5.44175 19.6813 5.97095 20.6939C6.54588 21.5563 6.05588 20.9357 7.00975 22.1835C4.57935 22.9283 2.24695 22.8369 2.24695 22.8369C2.24695 22.8369 3.34455 20.7527 5.20655 19.041L5.21308 19.0475Z" fill="#FFC800"/>
<path d="M4.74272 13.6833C4.58592 15.003 4.61205 14.5 4.59245 15.493C4.56632 15.9504 4.65125 16.4012 4.65778 16.7409C4.70352 17.0806 4.74925 17.2962 4.74925 17.2962C3.18778 16.9565 1.46298 16.2052 0.300049 15.48C1.69165 14.6437 3.27272 14.0165 4.74272 13.6768V13.6833Z" fill="#FFC800"/>
<path d="M7.03593 8.8032C7.03593 8.8032 6.8726 8.96 6.68313 9.24747C6.13433 10.0053 5.56593 10.8939 5.2262 11.9261C4.20046 10.9984 3.06366 9.58067 2.27966 8.1368C3.95873 8.0976 5.76846 8.3916 7.03593 8.8032Z" fill="#FFC800"/>
<path d="M11.4524 5.71937C9.77337 6.3727 9.0939 6.9215 8.31644 7.52257C7.57164 5.09217 7.6631 2.75977 7.6631 2.75977C7.6631 2.75977 9.75377 3.8639 11.459 5.71937H11.4524Z" fill="#FFC800"/>
<path d="M16.8229 5.24247C15.9409 5.13794 15.379 5.09874 14.987 5.0922C14.3598 5.07914 14.1573 5.15754 13.7588 5.16407C13.4256 5.20981 13.1969 5.25554 13.1969 5.25554C13.5236 3.75287 14.2422 2.06727 14.9805 0.852071C14.9936 0.832471 15.0001 0.819405 15.0132 0.799805C15.771 2.06074 16.4505 3.64834 16.8164 5.24247H16.8229Z" fill="#FFC800"/>
<path d="M21.6967 7.53556C21.2589 7.07823 19.6779 6.0917 18.5737 5.72583C19.4623 4.75236 20.88 3.58943 22.3631 2.7793C22.4088 4.4845 22.1017 6.31383 21.6967 7.53556Z" fill="#FFC800"/>
<path d="M27.7466 8.16274C27.7466 8.16274 26.6424 10.2469 24.787 11.9586C24.4995 11.2138 24.5583 11.3249 24.0291 10.3057C23.4542 9.44327 23.9442 10.0639 22.9838 8.81607C25.4142 8.07127 27.7466 8.16274 27.7466 8.16274Z" fill="#FFC800"/>
<path d="M25.4077 15.5129C25.4339 15.0555 25.3489 14.6113 25.3424 14.265C25.2901 13.9318 25.2444 13.7031 25.2444 13.7031C26.8124 14.0494 28.5503 14.8073 29.6936 15.5194C28.4392 16.2773 26.8516 16.9567 25.2509 17.3226C25.4143 16.0029 25.3751 16.4994 25.4012 15.5129H25.4077Z" fill="#FFC800"/>
<path d="M16.8228 5.24247C15.9408 5.13794 15.3789 5.09874 14.9869 5.0922V0.852071C14.9869 0.852071 15.0065 0.819405 15.0196 0.799805C15.7775 2.06074 16.4569 3.64834 16.8228 5.24247Z" fill="#FFDC00"/>
<path d="M16.2348 25.8488C16.5745 25.8031 16.7967 25.7573 16.7967 25.7573C16.4569 27.3188 15.7056 29.0501 14.9869 30.1935V25.9141C15.6337 25.9337 15.8363 25.8553 16.2348 25.8488Z" fill="#FFDC00"/>
<path d="M15 24.9207H14.9869V6.07861H15C20.2071 6.07861 24.4211 10.2991 24.4211 15.4997C24.4211 20.7002 20.2071 24.9207 15 24.9207Z" fill="#FFDC00"/>
<path d="M21.6903 23.4834C22.4285 25.9138 22.3436 28.2462 22.3436 28.2462C22.3436 28.2462 20.2595 27.1486 18.5477 25.2866C19.286 24.9991 19.1815 25.0579 20.1941 24.5287C21.0631 23.9603 20.4424 24.4503 21.6903 23.4834Z" fill="#FFDC00"/>
<path d="M21.6967 7.53556C21.2589 7.07823 19.6779 6.0917 18.5737 5.72583C19.4623 4.75236 20.88 3.58943 22.3631 2.7793C22.4088 4.4845 22.1017 6.31383 21.6967 7.53556Z" fill="#FFDC00"/>
<path d="M27.7204 22.8631C26.0414 22.9088 24.212 22.6083 22.9707 22.1967C23.4346 21.7524 24.4146 20.1713 24.7739 19.0737C25.7539 19.9557 26.9168 21.38 27.7204 22.8631Z" fill="#FFDC00"/>
<path d="M24.0291 10.3057C23.4542 9.44327 23.9442 10.0639 22.9838 8.81607C25.4142 8.07127 27.7466 8.16274 27.7466 8.16274C27.7466 8.16274 26.6424 10.2469 24.787 11.9586C24.4995 11.2138 24.5583 11.3249 24.0291 10.3057Z" fill="#FFDC00"/>
<path d="M25.4077 15.5129C25.4339 15.0555 25.3489 14.6113 25.3424 14.265C25.2901 13.9318 25.2444 13.7031 25.2444 13.7031C26.8124 14.0494 28.5503 14.8073 29.6936 15.5194C28.4392 16.2773 26.8516 16.9567 25.2509 17.3226C25.4143 16.0029 25.3751 16.4994 25.4012 15.5129H25.4077Z" fill="#FFDC00"/>
<path d="M23.3431 15.4998H22.3631C22.3631 11.4426 19.0572 8.13674 15 8.13674L14.9869 7.15674H15C19.5995 7.15674 23.3431 10.9003 23.3431 15.4998Z" fill="#F5F5F5"/>
<path d="M20.4423 15.5001C20.4423 18.5119 18.0053 20.9489 14.9935 20.9489H14.9804C11.9751 20.9358 9.54468 18.5054 9.54468 15.5001C9.54468 12.4947 11.9751 10.0643 14.9804 10.0513H14.9935C18.0053 10.0513 20.4423 12.4947 20.4423 15.5001Z" fill="#FFC800"/>
<path d="M14.987 10.0578V20.9489C11.9817 20.9358 9.55127 18.5054 9.55127 15.5001C9.55127 12.4947 11.9817 10.0643 14.987 10.0513V10.0578Z" fill="#FFDC00"/>
</svg>
