<svg width="45" height="38" viewBox="0 0 45 38" fill="none" xmlns="http://www.w3.org/2000/svg">
<path d="M20.0308 12.2377C20.0308 16.4116 16.6451 19.7973 12.4713 19.7973C8.29738 19.7973 4.91174 16.4116 4.91174 12.2377C4.91174 8.06387 8.29738 4.67822 12.4713 4.67822C16.6451 4.67822 20.0308 8.06387 20.0308 12.2377Z" fill="#FFC800"/>
<path d="M18.8671 17.6128C19.2424 17.2525 20.0307 15.9838 20.3159 15.1055C21.0966 15.8186 22.035 16.9597 22.6806 18.1458C21.3294 18.1758 19.8655 17.9356 18.8671 17.6128Z" fill="#FFC800"/>
<path d="M15.3163 20.0898C15.9093 19.8571 15.8192 19.9096 16.6375 19.4817C17.3282 19.0238 16.8327 19.4141 17.8311 18.6484C18.4317 20.6003 18.3566 22.4695 18.3566 22.4695C18.3566 22.4695 16.6826 21.5912 15.3163 20.0973V20.0898Z" fill="#FFC800"/>
<path d="M11.0148 20.4655C12.854 20.6907 12.9516 20.5481 13.4695 20.5331C13.7398 20.4955 13.92 20.458 13.92 20.458C13.6422 21.7192 13.0341 23.108 12.4636 24.0313C11.788 22.9128 11.2925 21.6516 11.0148 20.4655Z" fill="#FFC800"/>
<path d="M7.10382 18.6338C7.46415 19.0091 8.72532 19.7974 9.61115 20.0826C8.86795 20.9084 7.7269 21.8167 6.57083 22.4473C6.5408 21.0811 6.78852 19.6172 7.10382 18.6338Z" fill="#FFC800"/>
<path d="M4.62641 15.083C4.85913 15.6761 4.80658 15.5935 5.23448 16.4042C5.6924 17.0949 5.30204 16.5994 6.06775 17.5978C4.11594 18.1984 2.2467 18.1233 2.2467 18.1233C2.2467 18.1233 3.12502 16.4493 4.61891 15.083H4.62641Z" fill="#FFC800"/>
<path d="M4.24355 10.7812C4.11593 11.8397 4.13845 11.4419 4.12343 12.2376C4.10091 12.6054 4.16848 12.9658 4.17599 13.236C4.21352 13.5063 4.25105 13.6864 4.25105 13.6864C2.99739 13.4162 1.6086 12.8081 0.677734 12.2301C1.79627 11.562 3.06495 11.0515 4.24355 10.7812Z" fill="#FFC800"/>
<path d="M6.08247 6.86275C6.08247 6.86275 5.94734 6.99037 5.7972 7.21558C5.35429 7.82364 4.90388 8.5368 4.63363 9.37008C3.80786 8.62689 2.89951 7.48583 2.26892 6.32975C3.61267 6.29973 5.06902 6.53244 6.08247 6.86275Z" fill="#FFC800"/>
<path d="M9.62597 4.38539C8.27472 4.91087 7.73421 5.35379 7.11113 5.83423C6.51057 3.88242 6.58564 2.01318 6.58564 2.01318C6.58564 2.01318 8.2597 2.899 9.62597 4.38539Z" fill="#FFC800"/>
<path d="M13.9349 4.01015C12.0957 3.79245 11.9981 3.93508 11.4801 3.94259C11.2098 3.98012 11.0297 4.01766 11.0297 4.01766C11.2924 2.80153 11.878 1.42775 12.486 0.444336C13.0941 1.45778 13.6346 2.72646 13.9349 4.01015Z" fill="#FFC800"/>
<path d="M17.8462 5.84919C17.4934 5.48135 16.2247 4.68561 15.3389 4.40034C16.0445 3.61962 17.1931 2.68124 18.3792 2.03564C18.4092 3.40191 18.1615 4.87328 17.8462 5.84919Z" fill="#FFC800"/>
<path d="M20.3234 9.39245C20.0907 8.7994 20.1433 8.88198 19.7154 8.07122C19.2574 7.38058 19.6478 7.87604 18.8821 6.87761C20.8339 6.27705 22.7031 6.35212 22.7031 6.35212C22.7031 6.35212 21.8173 8.02618 20.3309 9.39245H20.3234Z" fill="#FFC800"/>
<path d="M20.6987 13.7016C20.8263 12.6431 20.8038 13.041 20.8188 12.2452C20.8413 11.8774 20.7737 11.5246 20.7662 11.2468C20.7287 10.9766 20.6912 10.7964 20.6912 10.7964C21.9523 11.0741 23.3411 11.6822 24.2645 12.2527C23.251 12.8608 21.9824 13.4013 20.6987 13.7016Z" fill="#FFC800"/>
<path d="M20.0308 12.2377C20.0308 16.4191 16.6451 19.7973 12.4713 19.7973H12.4638C8.29739 19.7973 4.91174 16.4116 4.91174 12.2377C4.91174 8.06387 8.28988 4.68573 12.4638 4.67822H12.4713C16.6451 4.67822 20.0308 8.06387 20.0308 12.2377Z" fill="#FFC800"/>
<path d="M22.6806 18.1458C21.3369 18.1833 19.8655 17.9356 18.8671 17.6128C19.2424 17.2525 20.0231 15.9913 20.3159 15.1055C21.1042 15.8186 22.035 16.9522 22.6806 18.1458Z" fill="#FFC800"/>
<path d="M18.3642 22.4622C18.3642 22.4622 16.6901 21.5838 15.3239 20.09C15.9169 19.8572 15.8343 19.9098 16.6451 19.4819C17.3432 19.024 16.8403 19.4143 17.8462 18.6411C18.4392 20.5929 18.3717 22.4622 18.3717 22.4622H18.3642Z" fill="#FFC800"/>
<path d="M13.9125 20.4577C13.6423 21.7114 13.0342 23.1002 12.4637 24.016C12.4637 24.016 12.4637 24.016 12.4637 24.0235C11.7956 22.905 11.2926 21.6438 11.0223 20.4577C11.713 20.5403 12.1559 20.5703 12.4712 20.5778C12.9892 20.5928 13.1543 20.5328 13.4696 20.5253C13.7399 20.4877 13.92 20.4502 13.92 20.4502L13.9125 20.4577Z" fill="#FFC800"/>
<path d="M7.10382 18.6333C7.46415 19.0086 8.72532 19.7969 9.61115 20.0821C8.86795 20.9079 7.7269 21.8163 6.57083 22.4468C6.5408 21.0806 6.78852 19.6167 7.10382 18.6333Z" fill="#FFC800"/>
<path d="M4.62641 15.0825C4.85913 15.6756 4.80658 15.593 5.23448 16.4037C5.6924 17.0944 5.30204 16.5989 6.06775 17.5974C4.11594 18.1979 2.2467 18.1228 2.2467 18.1228C2.2467 18.1228 3.12502 16.4488 4.61891 15.0825H4.62641Z" fill="#FFC800"/>
<path d="M4.24355 10.7812C4.11593 11.8397 4.13845 11.4419 4.12343 12.2376C4.10091 12.6054 4.16848 12.9658 4.17599 13.236C4.21352 13.5063 4.25105 13.6864 4.25105 13.6864C2.99739 13.4162 1.6086 12.8081 0.677734 12.2301C1.79627 11.562 3.06495 11.0515 4.24355 10.7812Z" fill="#FFC800"/>
<path d="M6.08247 6.86275C6.08247 6.86275 5.94734 6.99037 5.7972 7.21558C5.35429 7.82364 4.90388 8.5368 4.63363 9.37008C3.80786 8.62689 2.89951 7.48583 2.26892 6.32975C3.61267 6.29973 5.06902 6.53244 6.08247 6.86275Z" fill="#FFC800"/>
<path d="M9.62597 4.38539C8.27472 4.91087 7.73421 5.35379 7.11113 5.83423C6.51057 3.88242 6.58564 2.01318 6.58564 2.01318C6.58564 2.01318 8.2597 2.899 9.62597 4.38539Z" fill="#FFC800"/>
<path d="M13.9349 4.00997C13.2292 3.92739 12.7788 3.89736 12.4635 3.88986C11.9605 3.88235 11.7954 3.94241 11.4801 3.94991C11.2098 3.98745 11.0297 4.02498 11.0297 4.02498C11.2924 2.82387 11.8704 1.4651 12.4635 0.489197C12.471 0.474183 12.4785 0.466674 12.486 0.45166C13.0941 1.4651 13.6421 2.73378 13.9349 4.01747V4.00997Z" fill="#FFC800"/>
<path d="M17.8462 5.84919C17.4934 5.48135 16.2322 4.68561 15.3389 4.40034C16.052 3.61962 17.1856 2.68875 18.3792 2.03564C18.4167 3.40191 18.169 4.87328 17.8462 5.84919Z" fill="#FFC800"/>
<path d="M22.6958 6.35212C22.6958 6.35212 21.81 8.02618 20.3236 9.39245C20.0909 8.79189 20.1434 8.88198 19.7155 8.07122C19.2501 7.38058 19.648 7.87604 18.8748 6.87761C20.8266 6.27705 22.6958 6.35212 22.6958 6.35212Z" fill="#FFC800"/>
<path d="M20.8188 12.2452C20.8413 11.8774 20.7737 11.5171 20.7662 11.2468C20.7287 10.9766 20.6912 10.7964 20.6912 10.7964C21.9523 11.0741 23.3411 11.6822 24.257 12.2527C23.251 12.8608 21.9824 13.4088 20.6912 13.7016C20.8188 12.6431 20.7887 13.041 20.8113 12.2527L20.8188 12.2452Z" fill="#FFC800"/>
<path d="M13.9349 4.00997C13.2292 3.92739 12.7788 3.89736 12.4635 3.88986V0.489197C12.4635 0.489197 12.4785 0.466674 12.486 0.45166C13.0941 1.4651 13.6421 2.73378 13.9349 4.01747V4.00997Z" fill="#FFDC00"/>
<path d="M13.4619 20.5404C13.7322 20.5029 13.9124 20.4653 13.9124 20.4653C13.6421 21.719 13.034 23.1078 12.4635 24.0236V20.5929C12.9815 20.608 13.1466 20.5479 13.4619 20.5404Z" fill="#FFDC00"/>
<path d="M12.471 19.7973H12.4635V4.67822H12.471C16.6449 4.67822 20.0305 8.06387 20.0305 12.2377C20.0305 16.4116 16.6449 19.7973 12.471 19.7973Z" fill="#FFDC00"/>
<path d="M17.8387 18.6411C18.4317 20.5929 18.3642 22.4622 18.3642 22.4622C18.3642 22.4622 16.6901 21.5838 15.3239 20.09C15.9169 19.8572 15.8343 19.9098 16.6451 19.4819C17.3432 19.024 16.8403 19.4143 17.8462 18.6411H17.8387Z" fill="#FFDC00"/>
<path d="M17.8462 5.84919C17.4934 5.48135 16.2322 4.68561 15.3389 4.40034C16.052 3.61962 17.1856 2.68875 18.3792 2.03564C18.4167 3.40191 18.169 4.87328 17.8462 5.84919Z" fill="#FFDC00"/>
<path d="M22.6806 18.1458C21.3369 18.1833 19.8655 17.9356 18.8671 17.6128C19.2424 17.2525 20.0231 15.9913 20.3159 15.1055C21.1042 15.8186 22.035 16.9522 22.6806 18.1458Z" fill="#FFDC00"/>
<path d="M19.7155 8.07122C19.2501 7.38058 19.648 7.87604 18.8748 6.87761C20.8266 6.27705 22.6958 6.35212 22.6958 6.35212C22.6958 6.35212 21.81 8.02618 20.3236 9.39245C20.0909 8.79189 20.1434 8.88198 19.7155 8.07122Z" fill="#FFDC00"/>
<path d="M20.8188 12.2452C20.8413 11.8774 20.7737 11.5171 20.7662 11.2468C20.7287 10.9766 20.6912 10.7964 20.6912 10.7964C21.9523 11.0741 23.3411 11.6822 24.257 12.2527C23.251 12.8608 21.9824 13.4088 20.6912 13.7016C20.8188 12.6431 20.7887 13.041 20.8113 12.2527L20.8188 12.2452Z" fill="#FFDC00"/>
<path d="M19.2048 12.238H18.349C18.349 9.00246 15.714 6.36751 12.4785 6.36751V5.51172C16.187 5.51172 19.2048 8.52952 19.2048 12.238Z" fill="#F5F5F5"/>
<path d="M44.2183 22.8602C44.2183 24.6769 43.4826 26.3285 42.289 27.5221C41.0954 28.7082 39.4439 29.4514 37.6272 29.4514H10.0465C6.8861 29.4514 4.31873 26.884 4.31873 23.7235C4.31873 20.5631 6.8861 17.9957 10.0465 17.9957C11.06 17.9957 12.0134 18.2585 12.8391 18.7239C12.704 18.3486 12.6214 17.9507 12.6214 17.5303C12.6214 15.601 14.1829 14.0395 16.1197 14.0395C17.2607 14.0395 18.2742 14.5876 18.9123 15.4433C19.2126 11.0743 22.7033 7.57603 27.0724 7.28326C27.2751 7.26825 27.4702 7.26074 27.6729 7.26074C32.5299 7.26074 36.4636 11.2019 36.4636 16.0589C36.4636 16.1715 36.4486 16.2766 36.4486 16.3817C36.8314 16.3142 37.2293 16.2691 37.6347 16.2691C41.2756 16.2691 44.2333 19.2194 44.2333 22.8602H44.2183Z" fill="#EAEAEA"/>
<path d="M44.2183 22.8602C44.2183 24.6769 43.4826 26.3285 42.289 27.5221C41.0954 28.7082 39.4438 29.4514 37.6271 29.4514H27.0648V7.28326C27.2675 7.26825 27.4627 7.26074 27.6654 7.26074C32.5224 7.26074 36.4561 11.2019 36.4561 16.0589C36.4561 16.1715 36.441 16.2766 36.441 16.3817C36.8239 16.3142 37.2218 16.2691 37.6271 16.2691C41.268 16.2691 44.2258 19.2194 44.2258 22.8602H44.2183Z" fill="#F5F5F5"/>
<path d="M35.36 33.6928C35.36 35.9824 33.4983 37.8367 31.2087 37.8367C28.919 37.8367 27.0648 35.9824 27.0648 33.6928C27.0648 31.4032 31.2087 25.5327 31.2087 25.5327C31.2087 25.5327 35.36 31.3957 35.36 33.6928Z" fill="#96DCF0"/>
<path d="M35.3599 33.6926C35.3599 35.9822 33.4981 37.8365 31.2085 37.8365V25.54C31.2085 25.54 35.3599 31.403 35.3599 33.7001V33.6926Z" fill="#A0E6FA"/>
<path d="M31.2085 36.6955V36.1249C32.5522 36.1249 33.6408 35.0364 33.6408 33.7002H34.2113C34.2113 35.3517 32.8675 36.6955 31.2085 36.6955Z" fill="#F5F5F5"/>
<path d="M24.5348 29.5864C24.5348 30.72 23.619 31.6358 22.4854 31.6358C21.3519 31.6358 20.436 30.72 20.436 29.5864C20.436 28.4529 22.4854 25.5552 22.4854 25.5552C22.4854 25.5552 24.5348 28.4529 24.5348 29.5864Z" fill="#96DCF0"/>
<path d="M24.5348 29.5864C24.5348 30.72 23.6189 31.6358 22.4854 31.6358V25.5552C22.4854 25.5552 24.5348 28.4529 24.5348 29.5864Z" fill="#A0E6FA"/>
</svg>
