<svg width="42" height="42" viewBox="0 0 42 42" fill="none" xmlns="http://www.w3.org/2000/svg">
<path d="M17.1152 23.0984C16.9876 23.0984 14.3116 23.0993 13.0774 23.098C12.4421 23.0976 12.2154 22.8693 12.2154 22.2299C12.2146 20.5874 12.2142 18.9449 12.2154 17.3025C12.2158 16.6712 12.4555 16.4303 13.0827 16.4299C14.3169 16.429 16.9782 16.4294 17.1152 16.4294C17.1152 16.3169 17.1147 13.9456 17.1152 12.8536C17.116 11.2392 17.404 9.69382 18.2242 8.27886C19.0639 6.83057 20.2859 5.83851 21.852 5.26489C22.8551 4.89723 23.8963 4.75057 24.9607 4.74976C26.2923 4.74895 27.624 4.75017 28.9561 4.75261C29.5285 4.75342 29.7824 5.00651 29.7837 5.58298C29.7861 7.12795 29.7861 8.67292 29.7837 10.2175C29.7828 10.8 29.5395 11.034 28.9541 11.0405C27.8625 11.0523 26.7701 11.045 25.6797 11.0889C24.5784 11.0889 23.9991 11.6268 23.9991 12.7667C23.9727 13.9724 23.9881 15.1794 23.9881 16.429C24.0913 16.429 27.2255 16.4286 28.6904 16.429C29.3559 16.429 29.5834 16.6578 29.5834 17.3269C29.5834 18.9604 29.583 20.5943 29.5817 22.2279C29.5813 22.8872 29.3676 23.0976 28.6982 23.098C27.2332 23.0989 24.1112 23.0984 23.9747 23.0984V36.3199C23.9747 37.0247 23.7529 37.2494 23.0574 37.2494C21.3617 37.2494 19.6656 37.2498 17.9699 37.2494C17.3552 37.2494 17.1156 37.0105 17.1156 36.3958C17.1152 32.09 17.1152 23.2496 17.1152 23.0984Z" fill="#3D6AD6"/>
</svg>
