<svg width="42" height="42" viewBox="0 0 42 42" fill="none" xmlns="http://www.w3.org/2000/svg">
<path d="M35.0842 18.3512L22.6562 18.3506C22.1074 18.3506 21.6626 18.7954 21.6626 19.3442V23.3143C21.6626 23.863 22.1074 24.3079 22.6562 24.3079H29.6548C28.8885 26.2968 27.4581 27.9624 25.6332 29.0207L28.6174 34.1866C33.4044 31.4181 36.2346 26.5604 36.2346 21.1225C36.2346 20.3483 36.1775 19.7948 36.0634 19.1715C35.9766 18.698 35.5655 18.3512 35.0842 18.3512Z" fill="#167EE6"/>
<path d="M20.9998 30.2733C17.5748 30.2733 14.5849 28.402 12.979 25.6328L7.81323 28.6103C10.4421 33.1665 15.3667 36.2346 20.9998 36.2346C23.7633 36.2346 26.3708 35.4905 28.617 34.1939V34.1868L25.6328 29.0208C24.2678 29.8125 22.6882 30.2733 20.9998 30.2733Z" fill="#12B347"/>
<path d="M28.6172 34.1936V34.1865L25.633 29.0205C24.268 29.8122 22.6885 30.273 21 30.273V36.2343C23.7634 36.2343 26.3711 35.4902 28.6172 34.1936Z" fill="#0F993E"/>
<path d="M11.7269 21.0003C11.7269 19.312 12.1876 17.7326 12.9792 16.3676L7.8134 13.3901C6.50961 15.6293 5.76562 18.2297 5.76562 21.0003C5.76562 23.7708 6.50961 26.3712 7.8134 28.6104L12.9792 25.6329C12.1876 24.2679 11.7269 22.6885 11.7269 21.0003Z" fill="#FFD500"/>
<path d="M20.9998 11.7269C23.2333 11.7269 25.2848 12.5205 26.8872 13.8406C27.2825 14.1663 27.8571 14.1428 28.2192 13.7806L31.0322 10.9676C31.4431 10.5568 31.4138 9.88427 30.9749 9.50353C28.2902 7.17439 24.797 5.76562 20.9998 5.76562C15.3667 5.76562 10.4421 8.83375 7.81323 13.3899L12.979 16.3674C14.5849 13.5982 17.5748 11.7269 20.9998 11.7269Z" fill="#FF4B26"/>
<path d="M26.8874 13.8406C27.2827 14.1663 27.8573 14.1428 28.2194 13.7806L31.0324 10.9676C31.4432 10.5568 31.4139 9.88427 30.9751 9.50353C28.2903 7.17433 24.7971 5.76562 21 5.76562V11.7269C23.2334 11.7269 25.285 12.5205 26.8874 13.8406Z" fill="#D93F21"/>
</svg>
