<svg width="115" height="160" viewBox="0 0 115 160" fill="none" xmlns="http://www.w3.org/2000/svg">
<path d="M42.86 89.2875C44.31 103.108 48.72 116.328 55.73 128.288L46.56 123.028L10.89 102.427C4.14998 98.5375 0 91.3375 0 83.5675V42.3775C0 34.5975 4.15998 27.4075 10.89 23.5175L46.56 2.9175C53.3 -0.9725 61.6 -0.9725 68.34 2.9175L90.25 15.5675C90.25 15.5675 90.26 15.5975 90.25 15.6075C87.05 16.6775 83.93 17.9375 80.97 19.4375C65.16 27.1275 52.74 39.8175 46.64 56.4375C42.83 66.8675 41.69 78.2475 42.86 89.2775V89.2875Z" fill="white"/>
<path d="M114.17 58.0274C113.47 47.3874 110.84 36.9374 107.87 26.6074C79.7699 32.1674 58.3799 50.4174 54.1799 79.6874C52.5599 90.5774 53.1999 101.727 55.2099 112.537C56.1599 117.857 57.6799 123.057 58.9299 128.277C58.9299 128.287 58.9399 128.297 58.9499 128.287C61.4699 127.527 64.0599 126.937 66.5899 126.237C70.5299 125.117 74.4399 123.777 78.2099 122.107L89.6799 115.487C98.3499 109.117 104.63 100.047 108.87 90.2174C113.34 80.1474 114.92 68.9974 114.16 58.0274H114.17Z" fill="white"/>
<path d="M23.6601 141.558H27.7401V159.138H23.6601V157.298C21.9901 158.858 20.1901 159.648 18.2601 159.648C15.8301 159.648 13.8201 158.768 12.2301 157.018C10.6501 155.228 9.87012 152.988 9.87012 150.308C9.87012 147.628 10.6601 145.478 12.2301 143.718C13.8101 141.958 15.7801 141.088 18.1501 141.088C20.2001 141.088 22.0301 141.928 23.6501 143.618V141.578L23.6601 141.558ZM14.0201 150.298C14.0201 151.978 14.4701 153.358 15.3701 154.408C16.3001 155.478 17.4601 156.018 18.8701 156.018C20.3701 156.018 21.5901 155.498 22.5201 154.468C23.4501 153.398 23.9101 152.038 23.9101 150.388C23.9101 148.738 23.4501 147.378 22.5201 146.308C21.5901 145.258 20.3901 144.738 18.9101 144.738C17.5101 144.738 16.3501 145.268 15.4101 146.328C14.4801 147.398 14.0201 148.718 14.0201 150.298Z" fill="white"/>
<path d="M36.1501 145.348V159.138H32.0701V145.348H30.6301V141.558H32.0701V139.008C32.0701 136.798 32.4601 135.228 33.2301 134.318C34.2901 133.038 35.8301 132.408 37.8501 132.408C38.5701 132.408 39.4801 132.618 40.5801 133.038V137.188L40.1701 136.968C39.2901 136.518 38.5701 136.298 38.0001 136.298C37.2801 136.298 36.7901 136.558 36.5401 137.078C36.2901 137.588 36.1601 138.558 36.1601 139.998V141.558H40.5801V145.348H36.1601H36.1501Z" fill="white"/>
<path d="M55.77 141.558H59.85V159.138H55.77V157.298C54.1 158.858 52.3 159.648 50.37 159.648C47.94 159.648 45.93 158.768 44.34 157.018C42.76 155.228 41.98 152.988 41.98 150.308C41.98 147.628 42.77 145.478 44.34 143.718C45.92 141.958 47.89 141.088 50.26 141.088C52.31 141.088 54.14 141.928 55.76 143.618V141.578L55.77 141.558ZM46.13 150.298C46.13 151.978 46.58 153.358 47.48 154.408C48.41 155.478 49.57 156.018 50.98 156.018C52.48 156.018 53.7 155.498 54.63 154.468C55.56 153.398 56.02 152.038 56.02 150.388C56.02 148.738 55.56 147.378 54.63 146.308C53.7 145.258 52.5 144.738 51.02 144.738C49.62 144.738 48.46 145.268 47.52 146.328C46.59 147.398 46.13 148.718 46.13 150.298Z" fill="white"/>
<path d="M69.85 141.668C69.27 141.958 68.61 142.488 67.86 143.258V141.698H63.8V159.128H67.86V150.098C67.86 146.938 68.87 145.278 70.89 145.138V141.318C70.52 141.388 70.16 141.498 69.85 141.668Z" fill="white"/>
<path d="M74.1101 141.708H78.1701V143.318C78.9501 142.508 79.6201 141.958 80.1701 141.668C80.7601 141.368 81.5001 141.218 82.3901 141.218C84.3801 141.218 85.9501 142.078 87.1001 143.798C88.3801 142.078 90.1001 141.218 92.2801 141.218C96.2401 141.218 98.2201 143.598 98.2201 148.358V159.128H94.1401V149.448C94.1401 147.778 93.9301 146.598 93.5301 145.908C93.1101 145.208 92.4201 144.848 91.4501 144.848C90.3301 144.848 89.5201 145.268 89.0001 146.098C88.4901 146.928 88.2301 148.278 88.2301 150.128V159.128H84.1501V149.498C84.1501 146.398 83.2501 144.848 81.4401 144.848C80.3001 144.848 79.4601 145.268 78.9401 146.118C78.4201 146.968 78.1601 148.298 78.1601 150.128V159.128H74.1001V141.698L74.1101 141.708Z" fill="white"/>
</svg>
