<svg width="82" height="54" viewBox="0 0 82 54" fill="none" xmlns="http://www.w3.org/2000/svg">
<path d="M36.5181 21.9513C36.5181 29.7273 30.2136 36.0183 22.4511 36.0183C14.6886 36.0183 8.38416 29.7138 8.38416 21.9513C8.38416 14.1888 14.6886 7.88428 22.4511 7.88428C30.2136 7.88428 36.5181 14.1888 36.5181 21.9513Z" fill="#FFC800"/>
<path d="M34.3446 31.9547C35.0466 31.2932 36.5046 28.9307 37.0446 27.2837C38.5026 28.6067 40.2441 30.7262 41.4456 32.9537C38.9346 33.0077 36.2076 32.5622 34.3446 31.9547Z" fill="#FFC800"/>
<path d="M27.7427 36.5718C28.8497 36.1398 28.6878 36.2343 30.1997 35.4378C31.4822 34.5873 30.5642 35.3163 32.4272 33.8853C33.5477 37.5168 33.3992 40.9998 33.3992 40.9998C33.3992 40.9998 30.2942 39.3528 27.7292 36.5853L27.7427 36.5718Z" fill="#FFC800"/>
<path d="M19.724 37.2738C23.1395 37.6788 23.3285 37.4223 24.287 37.3953C24.7865 37.3278 25.124 37.2603 25.124 37.2603C24.611 39.6093 23.477 42.2013 22.4105 43.9022C21.155 41.8098 20.2235 39.4743 19.724 37.2738Z" fill="#FFC800"/>
<path d="M12.4475 33.8584C13.1225 34.5604 15.4715 36.0184 17.1185 36.5584C15.7415 38.0839 13.6085 39.7849 11.462 40.9594C11.408 38.4214 11.867 35.6809 12.461 33.8584H12.4475Z" fill="#FFC800"/>
<path d="M7.83046 27.2567C8.26246 28.3637 8.16798 28.2017 8.96448 29.7137C9.81498 31.0097 9.08597 30.0782 10.517 31.9412C6.88547 33.0617 3.40247 32.9132 3.40247 32.9132C3.40247 32.9132 5.04947 29.7947 7.81697 27.2432L7.83046 27.2567Z" fill="#FFC800"/>
<path d="M7.1285 19.2378C6.8855 21.2088 6.9395 20.4663 6.9125 21.9378C6.872 22.6128 6.99349 23.2878 7.00699 23.8008C7.07449 24.3003 7.14199 24.6378 7.14199 24.6378C4.8065 24.1248 2.228 23.0043 0.5 21.9378C2.579 20.6823 4.9415 19.7508 7.1285 19.2513V19.2378Z" fill="#FFC800"/>
<path d="M10.5439 11.9477C10.5439 11.9477 10.3009 12.1907 10.0174 12.6092C9.19388 13.7432 8.35688 15.0662 7.84388 16.6052C6.31838 15.2282 4.61737 13.1087 3.44287 10.9487C5.95387 10.8812 8.65388 11.3267 10.5439 11.9477Z" fill="#FFC800"/>
<path d="M17.1458 7.34401C14.6348 8.31601 13.6223 9.13951 12.4613 10.0305C11.3408 6.39901 11.4893 2.91602 11.4893 2.91602C11.4893 2.91602 14.6078 4.56301 17.1593 7.33051L17.1458 7.34401Z" fill="#FFC800"/>
<path d="M25.1645 6.64217C21.7355 6.22367 21.56 6.49367 20.6015 6.52067C20.102 6.58817 19.7645 6.65567 19.7645 6.65567C20.264 4.38767 21.344 1.83617 22.478 0.0136719C23.612 1.89017 24.6245 4.25267 25.1645 6.64217Z" fill="#FFC800"/>
<path d="M32.4409 10.0575C31.7794 9.36904 29.4304 7.89754 27.7699 7.35754C29.0929 5.89954 31.2124 4.15804 33.4264 2.95654C33.4804 5.49454 33.0214 8.23504 32.4274 10.0575H32.4409Z" fill="#FFC800"/>
<path d="M37.0581 16.6591C36.6261 15.5521 36.7206 15.7141 35.9241 14.2021C35.0736 12.9196 35.8026 13.8376 34.3716 11.9746C38.0031 10.8541 41.4861 11.0026 41.4861 11.0026C41.4861 11.0026 39.8391 14.1211 37.0716 16.6726L37.0581 16.6591Z" fill="#FFC800"/>
<path d="M37.7602 24.6783C38.0032 22.7073 37.9491 23.4498 37.9761 21.9783C38.0166 21.3033 37.8952 20.6283 37.8817 20.1153C37.8142 19.6158 37.7467 19.2783 37.7332 19.2783C40.0822 19.7913 42.6741 20.9253 44.3751 21.9918C42.4986 23.1258 40.1226 24.1383 37.7466 24.6783H37.7602Z" fill="#FFC800"/>
<path d="M36.5181 21.9513C36.5181 29.7273 30.2271 36.0183 22.4511 36.0183H22.4377C14.6752 36.0183 8.38416 29.7138 8.38416 21.9513C8.38416 14.1888 14.6752 7.88428 22.4377 7.88428H22.4511C30.2271 7.88428 36.5181 14.1888 36.5181 21.9513Z" fill="#FFC800"/>
<path d="M41.4457 32.9534C38.9347 33.0209 36.2077 32.5619 34.3582 31.9544C35.0467 31.2929 36.5181 28.9304 37.0446 27.2969C38.5026 28.6199 40.2442 30.7394 41.4457 32.9534Z" fill="#FFC800"/>
<path d="M33.4129 40.9858C33.4129 40.9858 30.2944 39.3388 27.7429 36.5713C28.8499 36.1393 28.6879 36.2338 30.1999 35.4373C31.4959 34.5868 30.5644 35.3158 32.4409 33.8848C33.5479 37.5163 33.4129 40.9993 33.4129 40.9993V40.9858Z" fill="#FFC800"/>
<path d="M25.1241 37.2598C24.6246 39.5953 23.4906 42.1738 22.4241 43.8883C22.4241 43.8883 22.4241 43.8883 22.4241 43.9018C21.1821 41.8228 20.237 39.4738 19.7375 37.2733C21.02 37.4218 21.8435 37.4893 22.4375 37.5028C23.4095 37.5298 23.7066 37.4218 24.3006 37.4083C24.8136 37.3408 25.1375 37.2733 25.1375 37.2733L25.1241 37.2598Z" fill="#FFC800"/>
<path d="M12.4475 33.8579C13.1225 34.5599 15.4715 36.0179 17.1185 36.5579C15.7415 38.0834 13.6085 39.7844 11.462 40.9589C11.408 38.4209 11.867 35.6804 12.461 33.8579H12.4475Z" fill="#FFC800"/>
<path d="M7.83046 27.2567C8.26246 28.3637 8.16798 28.2017 8.96448 29.7137C9.81498 31.0097 9.08597 30.0782 10.517 31.9412C6.88547 33.0617 3.40247 32.9132 3.40247 32.9132C3.40247 32.9132 5.04947 29.7947 7.81697 27.2432L7.83046 27.2567Z" fill="#FFC800"/>
<path d="M7.1285 19.2373C6.8855 21.2083 6.9395 20.4658 6.9125 21.9373C6.872 22.6123 6.99349 23.2873 7.00699 23.8003C7.07449 24.2998 7.14199 24.6373 7.14199 24.6373C4.8065 24.1243 2.228 23.0038 0.5 21.9373C2.579 20.6818 4.9415 19.7503 7.1285 19.2508V19.2373Z" fill="#FFC800"/>
<path d="M10.5439 11.9477C10.5439 11.9477 10.3009 12.1907 10.0174 12.6092C9.19388 13.7432 8.35688 15.0662 7.84388 16.6052C6.31838 15.2282 4.61737 13.1087 3.44287 10.9487C5.95387 10.8812 8.65388 11.3267 10.5439 11.9477Z" fill="#FFC800"/>
<path d="M17.1458 7.34401C14.6348 8.31601 13.6223 9.13951 12.4613 10.0305C11.3408 6.39901 11.4893 2.91602 11.4893 2.91602C11.4893 2.91602 14.6078 4.56301 17.1593 7.33051L17.1458 7.34401Z" fill="#FFC800"/>
<path d="M25.1645 6.6285C23.855 6.4665 23.0045 6.4125 22.424 6.399C21.479 6.3855 21.182 6.4935 20.588 6.507C20.0885 6.5745 19.751 6.6555 19.751 6.6555C20.237 4.4145 21.3035 1.89 22.4105 0.081C22.424 0.054 22.4375 0.0405 22.4645 0C23.5985 1.89 24.611 4.2525 25.151 6.6285H25.1645Z" fill="#FFC800"/>
<path d="M32.441 10.0575C31.7795 9.36904 29.4304 7.89754 27.7834 7.35754C29.1064 5.89954 31.2259 4.17154 33.4399 2.95654C33.5074 5.49454 33.0485 8.23504 32.441 10.0575Z" fill="#FFC800"/>
<path d="M41.4726 10.9889C41.4726 10.9889 39.8256 14.1074 37.0581 16.6589C36.6261 15.5384 36.7206 15.7139 35.9241 14.1884C35.0601 12.9059 35.8026 13.8374 34.3716 11.9609C38.0031 10.8404 41.4861 10.9889 41.4861 10.9889H41.4726Z" fill="#FFC800"/>
<path d="M37.9896 21.9778C38.0301 21.2893 37.9086 20.6278 37.8951 20.1148C37.8141 19.6153 37.7601 19.2778 37.7601 19.2778C40.1091 19.7908 42.7011 20.9248 44.4021 21.9913C42.5256 23.1253 40.1631 24.1378 37.7736 24.6778C38.0166 22.7068 37.9626 23.4493 38.0031 21.9778H37.9896Z" fill="#FFC800"/>
<path d="M25.1646 6.6285C23.8551 6.4665 23.0046 6.4125 22.4241 6.399V0.081C22.4241 0.081 22.4511 0.0405 22.4781 0C23.6121 1.89 24.6246 4.2525 25.1646 6.6285Z" fill="#FFDC00"/>
<path d="M24.2871 37.4084C24.8001 37.3409 25.1241 37.2734 25.1241 37.2734C24.6246 39.6089 23.4906 42.1874 22.4241 43.9019V37.5164C23.3961 37.5434 23.6931 37.4354 24.2871 37.4219V37.4084Z" fill="#FFDC00"/>
<path d="M22.4376 36.0183H22.4241V7.88428H22.4376C30.2136 7.88428 36.5046 14.1888 36.5046 21.9513C36.5046 29.7138 30.2136 36.0183 22.4376 36.0183Z" fill="#FFDC00"/>
<path d="M32.4409 33.8716C33.5479 37.5031 33.4129 40.9861 33.4129 40.9861C33.4129 40.9861 30.2944 39.3391 27.7429 36.5716C28.8499 36.1396 28.6879 36.2341 30.1999 35.4376C31.4959 34.5871 30.5644 35.3161 32.4409 33.8851V33.8716Z" fill="#FFDC00"/>
<path d="M32.441 10.0575C31.7795 9.36904 29.4304 7.89754 27.7834 7.35754C29.1064 5.89954 31.2259 4.17154 33.4399 2.95654C33.5074 5.49454 33.0485 8.23504 32.441 10.0575Z" fill="#FFDC00"/>
<path d="M41.4457 32.9534C38.9347 33.0209 36.2077 32.5619 34.3582 31.9544C35.0467 31.2929 36.5181 28.9304 37.0446 27.2969C38.5026 28.6199 40.2442 30.7394 41.4457 32.9534Z" fill="#FFDC00"/>
<path d="M35.9241 14.1884C35.0601 12.9059 35.8026 13.8374 34.3716 11.9609C38.0031 10.8404 41.4861 10.9889 41.4861 10.9889C41.4861 10.9889 39.8391 14.1074 37.0716 16.6589C36.6396 15.5384 36.7341 15.7139 35.9376 14.1884H35.9241Z" fill="#FFDC00"/>
<path d="M37.9896 21.9778C38.0301 21.2893 37.9086 20.6278 37.8951 20.1148C37.8141 19.6153 37.7601 19.2778 37.7601 19.2778C40.1091 19.7908 42.7011 20.9248 44.4021 21.9913C42.5256 23.1253 40.1631 24.1378 37.7736 24.6778C38.0166 22.7068 37.9626 23.4493 38.0031 21.9778H37.9896Z" fill="#FFDC00"/>
<path d="M34.9654 21.951H33.3724C33.3724 15.93 28.4719 11.0295 22.4509 11.0295V9.43652C29.3629 9.43652 34.9789 15.0525 34.9789 21.9645L34.9654 21.951Z" fill="white"/>
<path d="M81.5405 41.7286C81.5405 45.1171 80.177 48.1951 77.9495 50.4091C75.722 52.6231 72.6575 54.0001 69.269 54.0001H17.9286C12.0426 54.0001 7.26355 49.2211 7.26355 43.3351C7.26355 37.4491 12.0426 32.6836 17.9286 32.6836C19.8186 32.6836 21.587 33.1696 23.126 34.0471C22.883 33.3586 22.721 32.6026 22.721 31.8196C22.721 28.2286 25.637 25.3261 29.228 25.3261C31.3475 25.3261 33.2376 26.3521 34.4256 27.9316C34.9925 19.7911 41.4725 13.2841 49.613 12.7441C49.9775 12.7171 50.3555 12.7036 50.7335 12.7036C59.7785 12.7036 67.109 20.0341 67.109 29.0656C67.109 29.2681 67.082 29.4706 67.082 29.6731C67.7975 29.5381 68.54 29.4706 69.2825 29.4706C76.0595 29.4706 81.554 34.9651 81.554 41.7421L81.5405 41.7286Z" fill="#F0F0F0"/>
<path d="M81.5408 41.7284C81.5408 45.1169 80.1773 48.1949 77.9498 50.4089C75.7223 52.6229 72.6578 53.9999 69.2693 53.9999H49.6133V12.7304C49.9778 12.7034 50.3558 12.6899 50.7338 12.6899C59.7788 12.6899 67.1093 20.0204 67.1093 29.0519C67.1093 29.2544 67.0823 29.4569 67.0823 29.6594C67.7978 29.5244 68.5403 29.4569 69.2828 29.4569C76.0598 29.4569 81.5542 34.9514 81.5542 41.7284H81.5408Z" fill="#EAEAEA"/>
</svg>
